<svg width="72" height="72" viewBox="0 0 72 72" fill="none" xmlns="http://www.w3.org/2000/svg">
<path d="M66 51.0066C65.997 59.6193 59.9448 66.8178 51.8616 68.5848L49.9476 62.8428C53.5596 62.2533 56.6295 60.0513 58.3947 57H51C47.6862 57 45 54.3138 45 51V39C45 35.6862 47.6862 33 51 33H59.8143C58.338 21.1611 48.2388 12 36 12C23.7611 12 13.662 21.1611 12.1857 33H21C24.3137 33 27 35.6862 27 39V51C27 54.3138 24.3137 57 21 57H12C8.68629 57 6 54.3138 6 51V36C6 19.4314 19.4314 6 36 6C52.5684 6 66 19.4314 66 36V38.9961V39V51V51.0066Z" fill="#D5D5D5"/>
</svg>
