<svg width="60" height="60" viewBox="0 0 60 60" fill="none" xmlns="http://www.w3.org/2000/svg">
<path d="M18.4734 41.3465C13.3473 37.7253 10 31.7535 10 25C10 13.9543 18.9543 5 30 5C41.0457 5 50 13.9543 50 25C50 31.7535 46.6527 37.7253 41.5265 41.3465L46.734 53.249C47.0107 53.8815 46.7222 54.6185 46.0897 54.8952C45.9317 54.9642 45.7613 55 45.5888 55H14.4113C13.7209 55 13.1613 54.4403 13.1613 53.75C13.1613 53.5775 13.1969 53.407 13.2661 53.249L18.4734 41.3465ZM35.3115 39.615L38.6418 37.2625C42.6025 34.4645 45 29.938 45 25C45 16.7157 38.2843 10 30 10C21.7157 10 15 16.7157 15 25C15 29.938 17.3975 34.4645 21.3584 37.2625L24.6885 39.615L20.1451 50H39.855L35.3115 39.615ZM20.2963 27.426L25.1483 26.213C25.6903 28.3882 27.657 30 30 30C32.343 30 34.3097 28.3882 34.8517 26.213L39.7038 27.426C38.6195 31.7765 34.6863 35 30 35C25.3137 35 21.3804 31.7765 20.2963 27.426Z" fill="#1743B1"/>
</svg>
