<svg width="40" height="50" viewBox="0 0 40 50" fill="none" xmlns="http://www.w3.org/2000/svg">
<path d="M8.47345 36.3465C3.34735 32.7253 0 26.7535 0 20C0 8.9543 8.9543 0 20 0C31.0457 0 40 8.9543 40 20C40 26.7535 36.6527 32.7253 31.5265 36.3465L36.734 48.249C37.0107 48.8815 36.7222 49.6185 36.0897 49.8952C35.9317 49.9642 35.7613 50 35.5888 50H4.41128C3.72093 50 3.16128 49.4403 3.16128 48.75C3.16128 48.5775 3.19695 48.407 3.26607 48.249L8.47345 36.3465ZM25.3115 34.615L28.6418 32.2625C32.6025 29.4645 35 24.938 35 20C35 11.7157 28.2843 5 20 5C11.7157 5 5 11.7157 5 20C5 24.938 7.39753 29.4645 11.3584 32.2625L14.6885 34.615L10.1451 45H29.855L25.3115 34.615ZM10.2963 22.426L15.1483 21.213C15.6903 23.3882 17.657 25 20 25C22.343 25 24.3097 23.3882 24.8517 21.213L29.7038 22.426C28.6195 26.7765 24.6863 30 20 30C15.3137 30 11.3804 26.7765 10.2963 22.426Z" fill="url(#paint0_linear_0_369)"/>
<defs>
<linearGradient id="paint0_linear_0_369" x1="35" y1="43.6125" x2="-4.02439" y2="12.393" gradientUnits="userSpaceOnUse">
<stop stop-color="#1742B0"/>
<stop offset="1" stop-color="#805FDE"/>
</linearGradient>
</defs>
</svg>
