<svg width="72" height="72" viewBox="0 0 72 72" fill="none" xmlns="http://www.w3.org/2000/svg">
<path d="M42.3639 31.4388C41.1924 30.2673 39.2928 30.2673 38.1213 31.4388L36 33.5604C33.6567 35.9034 29.8578 35.9034 27.5146 33.5604C25.1715 31.2171 25.1715 27.4181 27.5146 25.075L44.4066 8.17851C50.7183 6.75066 57.6024 8.49372 62.5164 13.4077C69.7746 20.6658 70.1148 32.2221 63.5376 39.8832L57.213 46.2882L42.3639 31.4388ZM9.48339 13.4077C16.0036 6.88752 25.9923 5.94996 33.51 10.5949L23.272 20.8323C18.5857 25.5186 18.5857 33.1167 23.272 37.803C27.8163 42.3471 35.0985 42.4848 39.8085 38.2161L40.2426 37.803L52.9704 50.5308L40.2426 63.2586C37.8993 65.6019 34.1004 65.6019 31.7574 63.2586L9.48339 40.9848C1.86817 33.3696 1.86817 21.0229 9.48339 13.4077Z" fill="#D5D5D5"/>
</svg>
