<svg width="114" height="39" viewBox="0 0 114 39" fill="none" xmlns="http://www.w3.org/2000/svg">
<path d="M0.6 26.48C0.6 24.48 2.2 22.84 4.2 22.84H26V4C26 1.92 27.68 0.199998 29.8 0.199998C31.88 0.199998 33.6 1.92 33.6 4V34.6C33.6 36.72 31.88 38.4 29.8 38.4C27.68 38.4 26 36.72 26 34.6V30.08H16.28V34.6C16.28 36.72 14.56 38.4 12.48 38.4C10.36 38.4 8.68 36.72 8.68 34.6V30.08H4.2C2.2 30.08 0.6 28.48 0.6 26.48ZM0.92 10.96C0.92 5.48 5.36 0.999998 10.8 0.999998H14.12C19.56 0.999998 24.04 5.48 24.04 10.96C24.04 16.4 19.56 20.84 14.12 20.84H10.8C5.36 20.84 0.92 16.4 0.92 10.96ZM8.64 10.92C8.64 12.4 9.84 13.6 11.32 13.6H13.64C15.12 13.6 16.32 12.4 16.32 10.92C16.32 9.44 15.12 8.24 13.64 8.24H11.32C9.84 8.24 8.64 9.44 8.64 10.92ZM40.1891 5.04C40.1891 3.04 41.7891 1.4 43.7891 1.4H68.3491C70.3491 1.4 71.9891 3.04 71.9891 5.04C71.9891 7.04 70.3491 8.64 68.3491 8.64H48.1891V15.92H68.7491C70.7491 15.92 72.3891 17.56 72.3891 19.56C72.3891 21.56 70.7491 23.16 68.7491 23.16H43.7891C41.7891 23.16 40.1891 21.56 40.1891 19.56V5.04ZM38.9891 32.84C38.9891 30.84 40.5891 29.2 42.5891 29.2H69.7091C71.7091 29.2 73.3491 30.84 73.3491 32.84C73.3491 34.84 71.7091 36.44 69.7091 36.44H42.5891C40.5891 36.44 38.9891 34.84 38.9891 32.84ZM101.578 4.2C101.578 2 103.338 0.199998 105.578 0.199998C107.778 0.199998 109.578 2 109.578 4.2V7.44H109.938C111.938 7.44 113.578 9.08 113.578 11.08C113.578 13.08 111.938 14.68 109.938 14.68H109.578V17.76C109.578 20 107.778 21.76 105.578 21.76C103.338 21.76 101.578 20 101.578 17.76V4.2ZM77.1781 4.24C77.1781 2.36 78.6981 0.799998 80.5781 0.799998H94.5781C96.4581 0.799998 97.9781 2.36 97.9781 4.24C97.9781 6.12 96.4581 7.64 94.5781 7.64H85.1781V13.68H94.9781C96.8581 13.68 98.3781 15.24 98.3781 17.12C98.3781 19 96.8581 20.52 94.9781 20.52H80.5781C78.6981 20.52 77.1781 19 77.1781 17.12V4.24ZM77.7781 25.96C77.7781 24.08 79.2981 22.52 81.1781 22.52H106.138C108.018 22.52 109.578 24.08 109.578 25.96V34.4C109.578 36.64 107.778 38.4 105.578 38.4C103.338 38.4 101.578 36.64 101.578 34.4V29.36H81.1781C79.2981 29.36 77.7781 27.84 77.7781 25.96Z" fill="#AAAAAA"/>
</svg>
