<svg width="18" height="18" viewBox="0 0 18 18" fill="none" xmlns="http://www.w3.org/2000/svg">
<g clip-path="url(#clip0_236_758)">
<path d="M9 3.83469C10.6833 3.83469 10.8826 3.84207 11.5446 3.8716C12.1598 3.89867 12.4921 4.00203 12.7136 4.08816C13.0064 4.20137 13.218 4.33918 13.4371 4.5582C13.6586 4.77969 13.7939 4.98887 13.9071 5.28172C13.9932 5.5032 14.0966 5.83789 14.1237 6.45066C14.1532 7.11512 14.1606 7.31445 14.1606 8.99527C14.1606 10.6786 14.1532 10.8779 14.1237 11.5399C14.0966 12.1551 13.9932 12.4873 13.9071 12.7088C13.7939 13.0017 13.6561 13.2133 13.4371 13.4323C13.2156 13.6538 13.0064 13.7892 12.7136 13.9024C12.4921 13.9885 12.1574 14.0919 11.5446 14.1189C10.8802 14.1485 10.6808 14.1559 9 14.1559C7.31672 14.1559 7.11738 14.1485 6.45539 14.1189C5.84016 14.0919 5.50793 13.9885 5.28645 13.9024C4.99359 13.7892 4.78195 13.6514 4.56293 13.4323C4.34145 13.2109 4.20609 13.0017 4.09289 12.7088C4.00676 12.4873 3.9034 12.1527 3.87633 11.5399C3.8468 10.8754 3.83941 10.6761 3.83941 8.99527C3.83941 7.31199 3.8468 7.11266 3.87633 6.45066C3.9034 5.83543 4.00676 5.5032 4.09289 5.28172C4.20609 4.98887 4.34391 4.77723 4.56293 4.5582C4.78441 4.33672 4.99359 4.20137 5.28645 4.08816C5.50793 4.00203 5.84262 3.89867 6.45539 3.8716C7.11738 3.84207 7.31672 3.83469 9 3.83469ZM9 2.7002C7.28965 2.7002 7.07555 2.70758 6.40371 2.73711C5.73434 2.76664 5.27414 2.87492 4.87547 3.02996C4.45957 3.19238 4.10766 3.40648 3.7582 3.7584C3.40629 4.10785 3.19219 4.45977 3.02977 4.8732C2.87473 5.27434 2.76645 5.73207 2.73691 6.40145C2.70738 7.07574 2.7 7.28984 2.7 9.0002C2.7 10.7105 2.70738 10.9246 2.73691 11.5965C2.76645 12.2659 2.87473 12.7261 3.02977 13.1247C3.19219 13.5406 3.40629 13.8925 3.7582 14.242C4.10766 14.5914 4.45957 14.808 4.87301 14.968C5.27414 15.123 5.73188 15.2313 6.40125 15.2608C7.07309 15.2904 7.28719 15.2977 8.99754 15.2977C10.7079 15.2977 10.922 15.2904 11.5938 15.2608C12.2632 15.2313 12.7234 15.123 13.1221 14.968C13.5355 14.808 13.8874 14.5914 14.2369 14.242C14.5863 13.8925 14.8029 13.5406 14.9629 13.1272C15.1179 12.7261 15.2262 12.2683 15.2557 11.5989C15.2852 10.9271 15.2926 10.713 15.2926 9.00266C15.2926 7.29231 15.2852 7.0782 15.2557 6.40637C15.2262 5.73699 15.1179 5.2768 14.9629 4.87813C14.8078 4.45977 14.5937 4.10785 14.2418 3.7584C13.8923 3.40895 13.5404 3.19238 13.127 3.03242C12.7259 2.87738 12.2681 2.7691 11.5988 2.73957C10.9245 2.70758 10.7104 2.7002 9 2.7002Z" fill="black"/>
<path d="M9 5.76416C7.21336 5.76416 5.76387 7.21365 5.76387 9.00029C5.76387 10.7869 7.21336 12.2364 9 12.2364C10.7866 12.2364 12.2361 10.7869 12.2361 9.00029C12.2361 7.21365 10.7866 5.76416 9 5.76416ZM9 11.0995C7.8409 11.0995 6.90082 10.1594 6.90082 9.00029C6.90082 7.84119 7.8409 6.90111 9 6.90111C10.1591 6.90111 11.0992 7.84119 11.0992 9.00029C11.0992 10.1594 10.1591 11.0995 9 11.0995Z" fill="black"/>
<path d="M13.1196 5.63588C13.1196 6.05424 12.78 6.39139 12.3641 6.39139C11.9457 6.39139 11.6086 6.05178 11.6086 5.63588C11.6086 5.21752 11.9482 4.88037 12.3641 4.88037C12.78 4.88037 13.1196 5.21998 13.1196 5.63588Z" fill="black"/>
</g>
<defs>
<clipPath id="clip0_236_758">
<rect width="12.6" height="12.6" fill="white" transform="translate(2.7 2.7002)"/>
</clipPath>
</defs>
</svg>
