<svg width="44" height="44" viewBox="0 0 44 44" fill="none" xmlns="http://www.w3.org/2000/svg">
<path d="M13.5472 30.3208C9.78804 27.6653 7.33331 23.286 7.33331 18.3334C7.33331 10.2332 13.8998 3.66675 22 3.66675C30.1002 3.66675 36.6666 10.2332 36.6666 18.3334C36.6666 23.286 34.212 27.6653 30.4527 30.3208L34.2716 39.0493C34.4745 39.5132 34.263 40.0536 33.7991 40.2566C33.6833 40.3072 33.5582 40.3334 33.4317 40.3334H10.5682C10.062 40.3334 9.65158 39.9229 9.65158 39.4167C9.65158 39.2902 9.67774 39.1652 9.72843 39.0493L13.5472 30.3208ZM14.8839 20.1125C15.679 23.3028 18.5634 25.6667 22 25.6667C25.4366 25.6667 28.3209 23.3028 29.1161 20.1125L25.5579 19.2229C25.1605 20.8181 23.7182 22.0001 22 22.0001C20.2818 22.0001 18.8395 20.8181 18.442 19.2229L14.8839 20.1125Z" fill="#D5D5D5"/>
</svg>
