<svg width="44" height="44" viewBox="0 0 44 44" fill="none" xmlns="http://www.w3.org/2000/svg">
<path d="M34.8333 18.3334H36.6667C37.6792 18.3334 38.5 19.1542 38.5 20.1667V38.5001C38.5 39.5126 37.6792 40.3334 36.6667 40.3334H7.33333C6.32082 40.3334 5.5 39.5126 5.5 38.5001V20.1667C5.5 19.1542 6.32082 18.3334 7.33333 18.3334H9.16667V16.5001C9.16667 9.41243 14.9124 3.66675 22 3.66675C29.0877 3.66675 34.8333 9.41243 34.8333 16.5001V18.3334ZM31.1667 18.3334V16.5001C31.1667 11.4375 27.0626 7.33341 22 7.33341C16.9374 7.33341 12.8333 11.4375 12.8333 16.5001V18.3334H31.1667ZM20.1667 25.6667V33.0001H23.8333V25.6667H20.1667Z" fill="#D5D5D5"/>
</svg>
