<svg width="396" height="134" viewBox="0 0 396 134" fill="none" xmlns="http://www.w3.org/2000/svg">
<path d="M0.457423 92.18C0.457423 85.18 6.05742 79.44 13.0574 79.44H89.3574V13.5C89.3574 6.21999 95.2374 0.199994 102.657 0.199994C109.937 0.199994 115.957 6.21999 115.957 13.5V120.6C115.957 128.02 109.937 133.9 102.657 133.9C95.2374 133.9 89.3574 128.02 89.3574 120.6V104.78H55.3374V120.6C55.3374 128.02 49.3174 133.9 42.0374 133.9C34.6174 133.9 28.7374 128.02 28.7374 120.6V104.78H13.0574C6.05742 104.78 0.457423 99.18 0.457423 92.18ZM1.57742 37.86C1.57742 18.68 17.1174 2.99999 36.1574 2.99999H47.7774C66.8174 2.99999 82.4974 18.68 82.4974 37.86C82.4974 56.9 66.8174 72.44 47.7774 72.44H36.1574C17.1174 72.44 1.57742 56.9 1.57742 37.86ZM28.5974 37.72C28.5974 42.9 32.7974 47.1 37.9774 47.1H46.0974C51.2774 47.1 55.4774 42.9 55.4774 37.72C55.4774 32.54 51.2774 28.34 46.0974 28.34H37.9774C32.7974 28.34 28.5974 32.54 28.5974 37.72ZM139.019 17.14C139.019 10.14 144.619 4.4 151.619 4.4H237.579C244.579 4.4 250.319 10.14 250.319 17.14C250.319 24.14 244.579 29.74 237.579 29.74H167.019V55.22H238.979C245.979 55.22 251.719 60.96 251.719 67.96C251.719 74.96 245.979 80.56 238.979 80.56H151.619C144.619 80.56 139.019 74.96 139.019 67.96V17.14ZM134.819 114.44C134.819 107.44 140.419 101.7 147.419 101.7H242.339C249.339 101.7 255.079 107.44 255.079 114.44C255.079 121.44 249.339 127.04 242.339 127.04H147.419C140.419 127.04 134.819 121.44 134.819 114.44ZM353.881 14.2C353.881 6.5 360.041 0.199994 367.881 0.199994C375.581 0.199994 381.881 6.5 381.881 14.2V25.54H383.141C390.141 25.54 395.881 31.28 395.881 38.28C395.881 45.28 390.141 50.88 383.141 50.88H381.881V61.66C381.881 69.5 375.581 75.66 367.881 75.66C360.041 75.66 353.881 69.5 353.881 61.66V14.2ZM268.481 14.34C268.481 7.76 273.801 2.29999 280.381 2.29999H329.381C335.961 2.29999 341.281 7.76 341.281 14.34C341.281 20.92 335.961 26.24 329.381 26.24H296.481V47.38H330.781C337.361 47.38 342.681 52.84 342.681 59.42C342.681 66 337.361 71.32 330.781 71.32H280.381C273.801 71.32 268.481 66 268.481 59.42V14.34ZM270.581 90.36C270.581 83.78 275.901 78.32 282.481 78.32H369.841C376.421 78.32 381.881 83.78 381.881 90.36V119.9C381.881 127.74 375.581 133.9 367.881 133.9C360.041 133.9 353.881 127.74 353.881 119.9V102.26H282.481C275.901 102.26 270.581 96.94 270.581 90.36Z" fill="#1743B1"/>
</svg>
