<svg width="208" height="90" viewBox="0 0 208 90" fill="none" xmlns="http://www.w3.org/2000/svg">
<g filter="url(#filter0_d_0_575)">
<path d="M15.5663 56.768C15.5663 53.568 18.1263 50.944 21.3263 50.944H56.2063V20.8C56.2063 17.472 58.8943 14.72 62.2863 14.72C65.6143 14.72 68.3663 17.472 68.3663 20.8V69.76C68.3663 73.152 65.6143 75.84 62.2863 75.84C58.8943 75.84 56.2063 73.152 56.2063 69.76V62.528H40.6543V69.76C40.6543 73.152 37.9023 75.84 34.5743 75.84C31.1823 75.84 28.4943 73.152 28.4943 69.76V62.528H21.3263C18.1263 62.528 15.5663 59.968 15.5663 56.768ZM16.0783 31.936C16.0783 23.168 23.1823 16 31.8863 16H37.1983C45.9023 16 53.0703 23.168 53.0703 31.936C53.0703 40.64 45.9023 47.744 37.1983 47.744H31.8863C23.1823 47.744 16.0783 40.64 16.0783 31.936ZM28.4303 31.872C28.4303 34.24 30.3503 36.16 32.7183 36.16H36.4303C38.7983 36.16 40.7183 34.24 40.7183 31.872C40.7183 29.504 38.7983 27.584 36.4303 27.584H32.7183C30.3503 27.584 28.4303 29.504 28.4303 31.872ZM78.9088 22.464C78.9088 19.264 81.4688 16.64 84.6688 16.64H123.965C127.165 16.64 129.789 19.264 129.789 22.464C129.789 25.664 127.165 28.224 123.965 28.224H91.7088V39.872H124.605C127.805 39.872 130.429 42.496 130.429 45.696C130.429 48.896 127.805 51.456 124.605 51.456H84.6688C81.4688 51.456 78.9088 48.896 78.9088 45.696V22.464ZM76.9888 66.944C76.9888 63.744 79.5488 61.12 82.7488 61.12H126.141C129.341 61.12 131.965 63.744 131.965 66.944C131.965 70.144 129.341 72.704 126.141 72.704H82.7488C79.5488 72.704 76.9888 70.144 76.9888 66.944ZM177.131 21.12C177.131 17.6 179.947 14.72 183.531 14.72C187.051 14.72 189.931 17.6 189.931 21.12V26.304H190.507C193.707 26.304 196.331 28.928 196.331 32.128C196.331 35.328 193.707 37.888 190.507 37.888H189.931V42.816C189.931 46.4 187.051 49.216 183.531 49.216C179.947 49.216 177.131 46.4 177.131 42.816V21.12ZM138.091 21.184C138.091 18.176 140.523 15.68 143.531 15.68H165.931C168.939 15.68 171.371 18.176 171.371 21.184C171.371 24.192 168.939 26.624 165.931 26.624H150.891V36.288H166.571C169.579 36.288 172.011 38.784 172.011 41.792C172.011 44.8 169.579 47.232 166.571 47.232H143.531C140.523 47.232 138.091 44.8 138.091 41.792V21.184ZM139.051 55.936C139.051 52.928 141.483 50.432 144.491 50.432H184.427C187.435 50.432 189.931 52.928 189.931 55.936V69.44C189.931 73.024 187.051 75.84 183.531 75.84C179.947 75.84 177.131 73.024 177.131 69.44V61.376H144.491C141.483 61.376 139.051 58.944 139.051 55.936Z" fill="#1743B1"/>
</g>
<defs>
<filter id="filter0_d_0_575" x="11.5662" y="14.72" width="188.765" height="69.1201" filterUnits="userSpaceOnUse" color-interpolation-filters="sRGB">
<feFlood flood-opacity="0" result="BackgroundImageFix"/>
<feColorMatrix in="SourceAlpha" type="matrix" values="0 0 0 0 0 0 0 0 0 0 0 0 0 0 0 0 0 0 127 0" result="hardAlpha"/>
<feOffset dy="4"/>
<feGaussianBlur stdDeviation="2"/>
<feComposite in2="hardAlpha" operator="out"/>
<feColorMatrix type="matrix" values="0 0 0 0 0 0 0 0 0 0 0 0 0 0 0 0 0 0 0.25 0"/>
<feBlend mode="normal" in2="BackgroundImageFix" result="effect1_dropShadow_0_575"/>
<feBlend mode="normal" in="SourceGraphic" in2="effect1_dropShadow_0_575" result="shape"/>
</filter>
</defs>
</svg>
