<svg width="24" height="24" viewBox="0 0 24 24" fill="none" xmlns="http://www.w3.org/2000/svg">
<g clip-path="url(#clip0_210_779)">
<path d="M7.34695 10.3873C8.8346 10.3873 10.0406 9.18128 10.0406 7.69363C10.0406 6.20598 8.8346 5 7.34695 5C5.8593 5 4.65332 6.20598 4.65332 7.69363C4.65332 9.18128 5.8593 10.3873 7.34695 10.3873Z" stroke="white" stroke-miterlimit="10"/>
<path d="M20.3 7.6936H10.4561" stroke="white" stroke-miterlimit="10"/>
<path d="M16.9534 18.8272C18.441 18.8272 19.647 17.6212 19.647 16.1336C19.647 14.6459 18.441 13.4399 16.9534 13.4399C15.4657 13.4399 14.2598 14.6459 14.2598 16.1336C14.2598 17.6212 15.4657 18.8272 16.9534 18.8272Z" stroke="white" stroke-miterlimit="10"/>
<path d="M4 16.1338H13.844" stroke="white" stroke-miterlimit="10"/>
</g>
<defs>
<clipPath id="clip0_210_779">
<rect width="24" height="24" fill="white"/>
</clipPath>
</defs>
</svg>
