<svg width="80" height="80" viewBox="0 0 80 80" fill="none" xmlns="http://www.w3.org/2000/svg">
<path d="M78.2437 47.8011C77.9045 47.2374 77.226 47.1246 76.6605 47.3501C74.2857 48.7032 72.4763 47.2374 69.3099 44.5313C67.0481 42.6145 64.4471 40.3595 61.1676 39.6829C57.6619 39.0064 54.6085 40.585 52.6861 42.7273C52.1206 42.6145 51.5552 42.6145 50.9898 42.6145C50.9898 42.6145 50.9897 42.6145 50.8767 42.6145C49.5196 42.6145 48.0495 42.84 46.6924 43.291C45.6747 41.2615 44.2045 39.2319 42.3951 37.3151C44.5438 36.3004 46.0139 34.0453 46.0139 31.5647C46.0139 28.0694 43.1867 25.1378 39.568 25.1378C36.5146 25.1378 33.9136 27.2801 33.3482 30.0989C32.2173 29.5352 31.0864 29.0842 30.0686 28.7459C30.521 28.0694 31.0864 27.2801 31.7649 26.4909C33.4613 24.6868 34.0267 22.5445 33.3482 20.515C33.2351 20.064 33.0089 19.6129 32.6696 19.1619C33.8005 16.6814 33.5743 13.9753 32.7827 12.0585C33.8005 10.7055 34.7052 9.12694 35.1576 7.21014C35.2706 6.64637 34.9314 5.96986 34.366 5.85711C33.8005 5.74435 33.122 6.08261 33.0089 6.64637C32.6696 7.88666 32.2173 9.01418 31.5388 9.9162C30.7472 8.90143 29.6163 8.22491 28.5985 8.11216C25.0928 7.7739 23.3965 9.23969 22.9442 10.8182C22.4918 12.284 23.1703 13.8626 24.5274 14.6518C25.8844 15.4411 27.5807 15.4411 29.277 14.7646C29.8425 14.5391 30.4079 14.2008 30.9733 13.7498C31.1995 14.7646 31.3126 16.0049 30.9733 17.2451C30.2948 16.7941 29.5032 16.4559 28.7116 16.2304C26.9022 15.8921 25.2059 16.3431 24.075 17.6961C23.2834 18.5982 23.0572 19.7257 23.3965 20.8532C23.8489 22.0935 24.9797 23.1083 26.3368 23.3338C27.3546 23.5593 29.277 23.4465 31.1995 21.3042C31.5388 22.5445 31.0864 23.7848 30.0686 24.9123C29.0509 26.0398 28.2592 27.0546 27.6938 28.0694C26.7891 27.9566 25.9975 27.8439 25.2059 27.8439C22.8311 27.8439 20.7955 28.6332 19.3254 29.9862C18.6468 30.6627 18.0814 31.5647 17.7421 32.5795L1.79687 71.592C1.45761 72.3812 1.5707 73.2832 2.02304 74.0725C2.47539 74.8618 3.38009 75.2001 4.1717 75.2001C4.51096 75.2001 4.85022 75.0873 5.18948 74.9745L29.3901 65.0523L44.2045 58.9637C45.2223 58.6254 46.127 58.0616 46.8055 57.3851C49.5196 54.6791 49.6327 50.1689 47.5971 45.3206C48.6149 44.9823 49.7458 44.8696 50.7636 44.8696C50.8767 44.8696 50.9897 44.8696 51.1028 44.8696C49.5196 47.9139 49.8589 51.1837 51.7814 53.4388C52.9122 54.6791 54.2693 55.1301 55.5132 55.1301C56.6441 55.1301 57.775 54.6791 58.5666 54.0025C60.376 52.424 61.2807 49.3797 58.7928 46.2226C57.775 44.9823 56.531 43.9675 55.0609 43.4038C56.531 42.1635 58.4535 41.487 60.6022 41.938C63.3162 42.5018 65.578 44.4185 67.7266 46.2226C70.78 48.8159 73.8333 51.4092 77.6783 49.2669C78.3568 49.0414 78.583 48.3649 78.2437 47.8011ZM28.4854 12.735C27.8069 13.0733 26.7891 13.2988 25.7713 12.735C25.319 12.5095 25.0928 11.9458 25.2059 11.4947C25.4321 10.931 26.1106 10.3672 27.8069 10.3672C28.0331 10.3672 28.2592 10.3672 28.4854 10.3672C28.9378 10.3672 29.6163 10.8182 30.1817 11.6075C29.6163 12.1713 29.0509 12.5095 28.4854 12.735ZM29.8425 19.8384C28.9378 20.966 27.92 21.5297 27.0153 21.3042C26.4499 21.1915 25.9975 20.8532 25.7713 20.2895C25.6582 19.9512 25.7713 19.6129 25.9975 19.3874C26.5629 18.7109 27.2415 18.5982 27.8069 18.5982C28.0331 18.5982 28.2592 18.5982 28.4854 18.7109C29.0509 18.8237 29.7294 19.1619 30.1817 19.6129C29.9556 19.6129 29.8425 19.7257 29.8425 19.8384ZM39.681 27.3929C41.9428 27.3929 43.8653 29.1969 43.8653 31.5647C43.8653 33.5943 42.282 35.3983 40.2465 35.6238C40.0203 35.6238 39.9072 35.7366 39.681 35.7366C39.4549 35.7366 39.1156 35.7366 38.8894 35.6238C38.7763 35.6238 38.7763 35.6238 38.6633 35.6238C38.4371 35.6238 38.324 35.5111 38.0978 35.3983C37.9847 35.3983 37.9847 35.2856 37.8717 35.2856C37.7586 35.1728 37.5324 35.1728 37.4193 35.0601C37.3062 34.9473 37.1931 34.9473 37.1931 34.8346C37.08 34.7218 36.967 34.7218 36.8539 34.6091C36.7408 34.4963 36.6277 34.3836 36.5146 34.2708C36.5146 34.158 36.4015 34.158 36.4015 34.0453C36.2884 33.8198 36.1753 33.707 36.0623 33.4815C35.8361 33.0305 35.723 32.5795 35.6099 32.0157C35.6099 31.903 35.6099 31.7902 35.6099 31.6775C35.4968 29.3097 37.4193 27.3929 39.681 27.3929ZM26.676 52.875C26.7891 52.9878 26.9022 53.1005 27.0153 53.1005C27.4676 53.4388 27.92 53.8898 28.3723 54.228C28.4854 54.3408 28.4854 54.3408 28.5985 54.4535C29.0509 54.7918 29.3901 55.0173 29.8425 55.3556C29.9556 55.4683 30.0686 55.4683 30.0686 55.5811C30.521 55.9193 30.9733 56.1448 31.4257 56.4831C31.5388 56.5958 31.6519 56.5958 31.7649 56.7086C32.2173 56.9341 32.6696 57.2724 33.122 57.4979H33.2351C33.6874 57.7234 34.1398 57.9489 34.7052 58.1744C34.7052 58.1744 34.8183 58.1744 34.8183 58.2871C24.8666 57.1596 17.1767 51.7475 14.915 46.1098L16.0458 43.291C17.516 45.4333 19.6646 47.1246 22.3787 48.4776C23.2834 49.6052 24.1881 50.7327 25.319 51.8602C25.7713 52.0857 26.2237 52.5368 26.676 52.875ZM28.9378 62.91C24.3012 62.3462 14.0103 60.3167 11.6354 53.777L13.671 48.7032C17.516 55.3556 26.3368 59.4147 35.0445 60.4294L28.9378 62.91ZM20.4562 66.4053C16.272 66.0671 11.07 64.4885 9.26062 59.5274L10.5046 56.5958C13.4448 61.3315 19.6646 63.4738 24.9797 64.6013L20.4562 66.4053ZM12.8794 69.4497C9.37371 69.4497 6.88579 67.9839 6.43344 66.4053L8.12975 62.3462C9.82605 65.1651 12.6532 66.9691 16.4982 67.9839L12.8794 69.4497ZM19.4385 43.742C18.4207 42.84 17.7422 41.8252 17.0636 40.585L17.7421 39.0064C18.0814 40.585 18.6468 42.1635 19.4385 43.742ZM4.39787 72.945C4.1717 73.0577 4.05861 72.945 3.94553 72.8322C3.83244 72.7195 3.94553 72.494 3.94553 72.494L5.41566 68.9986C6.32035 69.9007 7.45123 70.6899 8.92136 71.141L4.39787 72.945ZM45.3354 55.8066C44.8831 56.2576 44.2045 56.7086 43.526 56.9341C42.8475 57.1596 41.9428 57.2724 41.0381 57.2724C37.3062 57.2724 32.6696 55.1301 28.5985 51.6347C28.4854 51.522 28.2592 51.4092 28.1462 51.1837C27.6938 50.8455 27.3546 50.3944 26.9022 50.0562C26.5629 49.7179 26.1106 49.2669 25.7713 48.9287C25.6582 48.8159 25.5452 48.5904 25.4321 48.4776C25.2059 48.2521 24.9797 48.0266 24.7535 47.6884C24.6405 47.4629 24.5274 47.3501 24.3012 47.1246C24.075 46.8991 23.9619 46.6736 23.7358 46.4481C23.6227 46.2226 23.5096 46.1098 23.3965 45.8843C23.2834 45.6588 23.0572 45.4333 22.9442 45.2078C22.8311 44.9823 22.718 44.8696 22.6049 44.6441C22.3787 44.4185 22.2656 44.0803 22.1525 43.8548C22.0395 43.742 22.0395 43.6293 21.9264 43.5165C21.7002 43.0655 21.474 42.7273 21.2478 42.2762C21.2478 42.1635 21.1348 42.0507 21.1348 42.0507C21.0217 41.7125 20.7955 41.3742 20.6824 41.036C20.6824 40.9232 20.5693 40.8105 20.5693 40.6977C20.4562 40.3594 20.3432 40.1339 20.2301 39.7957C20.2301 39.6829 20.117 39.5702 20.117 39.4574C20.0039 39.1192 19.8908 38.7809 19.8908 38.5554C19.8908 38.4427 19.8908 38.4426 19.7777 38.3299C19.6646 37.9916 19.6646 37.6534 19.5515 37.3151V37.2024C19.4385 36.4131 19.4385 35.7366 19.5515 35.0601C19.5515 34.9473 19.5515 34.9473 19.5515 34.9473C19.5515 34.7218 19.6646 34.3836 19.6646 34.158C19.6646 34.0453 19.7777 33.9325 19.7777 33.8198C20.0039 32.9178 20.4562 32.2412 21.0217 31.6775C22.0395 30.6627 23.3965 30.2117 25.2059 30.2117C25.6582 30.2117 26.1106 30.2117 26.5629 30.3245C25.5452 32.5795 25.4321 34.158 25.4321 34.6091C25.4321 35.2856 25.8844 35.7366 26.5629 35.7366C27.1284 35.7366 27.6938 35.2856 27.6938 34.6091C27.6938 34.3836 27.8069 32.805 28.8247 30.6627C30.2948 31.1137 31.7649 31.6775 33.2351 32.5795C33.4613 33.707 33.9136 34.7218 34.5921 35.6238C34.5921 35.6238 34.5921 35.6238 34.7052 35.7366C34.9314 35.9621 35.0445 36.1876 35.2706 36.3004C35.3837 36.3004 35.3837 36.4131 35.4968 36.4131C35.723 36.6386 35.9492 36.7514 36.1753 36.8641C36.2884 36.8641 36.4015 36.9769 36.4015 36.9769C36.6277 37.0896 36.8539 37.2024 37.1931 37.3151C37.3062 37.3151 37.4193 37.4279 37.4193 37.4279C37.7586 37.5406 37.9847 37.6534 38.324 37.6534C38.4371 37.6534 38.4371 37.6534 38.5502 37.6534C38.8894 37.6534 39.2287 37.7661 39.568 37.7661C39.681 37.7661 39.7941 37.7661 39.9072 37.7661C41.8297 39.6829 43.2998 41.8252 44.4307 43.9675C41.6035 45.2078 39.0025 47.2374 36.967 49.9434C36.6277 50.3944 36.6277 51.1837 37.1931 51.522C37.6455 51.8602 38.4371 51.8602 38.7763 51.2965C40.6988 48.9287 42.9606 47.1246 45.4485 45.9971C47.2579 50.1689 47.371 53.8898 45.3354 55.8066ZM57.2095 47.6884C58.9058 49.8307 58.3404 51.6347 57.3226 52.424C56.4179 53.2133 54.8347 53.4388 53.5908 51.973C51.8944 50.0562 52.3468 47.4629 53.3646 45.6588C53.4777 45.5461 53.4777 45.4333 53.5908 45.3206C55.0609 45.7716 56.3048 46.5608 57.2095 47.6884ZM40.0203 42.1635C40.0203 40.4722 38.6633 39.1192 36.967 39.1192C35.2706 39.1192 33.9136 40.4722 33.9136 42.1635C33.9136 43.8548 35.2706 45.2078 36.967 45.2078C38.6633 45.2078 40.0203 43.742 40.0203 42.1635ZM36.1753 42.1635C36.1753 41.7125 36.5146 41.3742 36.967 41.3742C37.4193 41.3742 37.7586 41.7125 37.7586 42.1635C37.7586 42.6145 37.4193 42.9528 36.967 42.9528C36.5146 42.9528 36.1753 42.5018 36.1753 42.1635ZM43.1867 13.7498L47.0317 15.7793L47.4841 20.064C47.4841 20.515 47.8233 20.8532 48.1626 20.966C48.2757 20.966 48.3887 21.0787 48.5018 21.0787C48.8411 21.0787 49.0673 20.966 49.2934 20.7405L52.4599 17.8089L56.7572 18.7109C57.2095 18.8237 57.6619 18.5982 57.8881 18.2599C58.1142 17.9217 58.2273 17.4706 58.0012 17.1324L56.1918 13.186L58.3404 9.46519C58.5666 9.12694 58.5666 8.67592 58.3404 8.22491C58.1142 7.88665 57.6619 7.66115 57.2095 7.7739L52.9122 8.45042L49.972 5.18059C49.6327 4.84233 49.2934 4.72958 48.8411 4.84233C48.3887 4.95508 48.1626 5.29334 48.0495 5.74435L47.2579 10.029L43.2998 11.833C42.9606 12.0585 42.6213 12.3968 42.6213 12.8478C42.6213 13.2988 42.8475 13.5243 43.1867 13.7498ZM48.728 11.833C49.0673 11.7202 49.2934 11.382 49.4065 11.0437L49.8589 8.45042L51.6683 10.3672C51.8944 10.5927 52.2337 10.8182 52.6861 10.7055L55.2871 10.3672L53.93 12.6223C53.7038 12.9605 53.7038 13.2988 53.93 13.637L55.0609 16.0049L52.4599 15.5538C52.1206 15.4411 51.6683 15.5538 51.4421 15.8921L49.5196 17.6961L49.2934 15.1028C49.2934 14.7646 49.0673 14.4263 48.728 14.2008L46.3532 12.9605L48.728 11.833ZM54.1562 25.9271C53.7038 25.8143 53.2515 25.9271 53.0253 26.1526C52.6861 26.4909 52.573 26.9419 52.7991 27.2801L53.7038 29.9862L52.0075 32.2412C51.7814 32.5795 51.6683 33.0305 51.8944 33.4815C52.1206 33.8198 52.4599 34.0453 52.9122 34.158H55.7394L57.3226 36.5259C57.5488 36.8641 57.8881 36.9769 58.2273 36.9769H58.3404C58.7928 36.8641 59.132 36.6386 59.2451 36.1876L60.1498 33.4815L62.8639 32.6923C63.3162 32.5795 63.5424 32.2413 63.6555 31.7902C63.7686 31.3392 63.5424 30.8882 63.2032 30.6627L60.9414 28.9714L61.0545 26.1526C61.0545 25.7016 60.8283 25.3633 60.4891 25.1378C60.1498 24.9123 59.6975 25.0251 59.2451 25.2506L56.9834 26.9419L54.1562 25.9271ZM57.6619 28.9714L58.5666 28.2949V29.4224C58.5666 29.7607 58.6797 30.0989 59.0189 30.3245L59.9236 31.001L58.7928 31.3392C58.4535 31.452 58.1142 31.6775 58.0012 32.1285L57.6619 33.256L56.9834 32.354C56.7572 32.0157 56.4179 31.903 56.0787 31.903H54.9478L55.6263 31.001C55.8525 30.6627 55.9656 30.3245 55.8525 29.9862L55.5132 28.8587L56.6441 29.1969C56.9834 29.3097 57.4357 29.1969 57.6619 28.9714Z" fill="white"/>
</svg>
