<svg width="70" height="70" viewBox="0 0 70 70" fill="none" xmlns="http://www.w3.org/2000/svg">
<g clip-path="url(#clip0_233_398)">
<path d="M8.12453 27.2954C8.81319 27.2954 9.48639 27.0912 10.059 26.7086C10.6316 26.326 11.0779 25.7822 11.3414 25.146C11.605 24.5097 11.6739 23.8096 11.5396 23.1342C11.4052 22.4588 11.0736 21.8383 10.5866 21.3514C10.0997 20.8644 9.47925 20.5328 8.80382 20.3984C8.12839 20.2641 7.42829 20.3331 6.79204 20.5966C6.1558 20.8601 5.61199 21.3064 5.22939 21.879C4.84679 22.4516 4.64258 23.1248 4.64258 23.8135C4.64258 24.737 5.00943 25.6226 5.66242 26.2756C6.31541 26.9286 7.20106 27.2954 8.12453 27.2954ZM8.12453 22.6528C8.35408 22.6528 8.57848 22.7209 8.76935 22.8484C8.96022 22.976 9.10898 23.1573 9.19683 23.3693C9.28467 23.5814 9.30766 23.8148 9.26287 24.0399C9.21809 24.2651 9.10755 24.4719 8.94523 24.6342C8.78291 24.7965 8.5761 24.9071 8.35096 24.9518C8.12581 24.9966 7.89245 24.9736 7.68037 24.8858C7.46828 24.7979 7.28702 24.6492 7.15948 24.4583C7.03195 24.2674 6.96388 24.043 6.96388 23.8135C6.96388 23.5057 7.08616 23.2105 7.30382 22.9928C7.52149 22.7751 7.8167 22.6528 8.12453 22.6528Z" fill="white"/>
<path d="M61.5152 27.2954C62.2038 27.2954 62.877 27.0912 63.4496 26.7086C64.0222 26.326 64.4685 25.7822 64.7321 25.146C64.9956 24.5097 65.0645 23.8096 64.9302 23.1342C64.7958 22.4588 64.4642 21.8383 63.9773 21.3514C63.4903 20.8644 62.8699 20.5328 62.1944 20.3984C61.519 20.2641 60.8189 20.3331 60.1827 20.5966C59.5464 20.8601 59.0026 21.3064 58.62 21.879C58.2374 22.4516 58.0332 23.1248 58.0332 23.8135C58.0332 24.737 58.4001 25.6226 59.053 26.2756C59.706 26.9286 60.5917 27.2954 61.5152 27.2954ZM61.5152 22.6528C61.7447 22.6528 61.9691 22.7209 62.16 22.8484C62.3508 22.976 62.4996 23.1573 62.5875 23.3693C62.6753 23.5814 62.6983 23.8148 62.6535 24.0399C62.6087 24.2651 62.4982 24.4719 62.3359 24.6342C62.1735 24.7965 61.9667 24.9071 61.7416 24.9518C61.5164 24.9966 61.2831 24.9736 61.071 24.8858C60.8589 24.7979 60.6776 24.6492 60.5501 24.4583C60.4226 24.2674 60.3545 24.043 60.3545 23.8135C60.3545 23.5057 60.4768 23.2105 60.6944 22.9928C60.9121 22.7751 61.2073 22.6528 61.5152 22.6528Z" fill="white"/>
<path d="M11.6065 34.9409C11.6065 34.2523 11.4023 33.5791 11.0197 33.0065C10.6371 32.4339 10.0933 31.9876 9.45701 31.724C8.82077 31.4605 8.12067 31.3915 7.44523 31.5259C6.7698 31.6602 6.14938 31.9919 5.66242 32.4788C5.17546 32.9658 4.84384 33.5862 4.70948 34.2616C4.57513 34.9371 4.64409 35.6372 4.90763 36.2734C5.17117 36.9097 5.61746 37.4535 6.19006 37.8361C6.76266 38.2187 7.43586 38.4229 8.12453 38.4229C9.048 38.4229 9.93365 38.056 10.5866 37.403C11.2396 36.7501 11.6065 35.8644 11.6065 34.9409ZM6.96388 34.9409C6.96388 34.7114 7.03195 34.487 7.15948 34.2961C7.28702 34.1052 7.46829 33.9565 7.68037 33.8686C7.89245 33.7808 8.12582 33.7578 8.35096 33.8026C8.5761 33.8474 8.78291 33.9579 8.94523 34.1202C9.10755 34.2826 9.21809 34.4894 9.26288 34.7145C9.30766 34.9396 9.28468 35.173 9.19683 35.3851C9.10898 35.5972 8.96022 35.7784 8.76935 35.906C8.57848 36.0335 8.35408 36.1016 8.12453 36.1016C7.8167 36.1016 7.52149 35.9793 7.30383 35.7616C7.08616 35.544 6.96388 35.2488 6.96388 34.9409Z" fill="white"/>
<path d="M68.4783 14.2891H54.5505C54.2427 14.2891 53.9475 14.4113 53.7298 14.629C53.5122 14.8467 53.3899 15.1419 53.3899 15.4497V43.3053C53.3899 43.6131 53.5122 43.9083 53.7298 44.126C53.9475 44.3437 54.2427 44.466 54.5505 44.466H58.0325V50.2692H49.9079V46.7873C49.9079 46.4794 49.7857 46.1842 49.568 45.9665C49.3503 45.7489 49.0551 45.6266 48.7473 45.6266H45.2653V42.1447C45.2653 41.8368 45.1431 41.5416 44.9254 41.3239C44.7077 41.1063 44.4125 40.984 44.1047 40.984H37.1408C36.833 40.984 36.5377 41.1063 36.3201 41.3239C36.1024 41.5416 35.9801 41.8368 35.9801 42.1447V45.6266H33.6588V42.1447C33.6588 41.8368 33.5366 41.5416 33.3189 41.3239C33.1012 41.1063 32.806 40.984 32.4982 40.984H25.5343C25.2265 40.984 24.9313 41.1063 24.7136 41.3239C24.4959 41.5416 24.3736 41.8368 24.3736 42.1447V45.6266H20.8917C20.5839 45.6266 20.2887 45.7489 20.071 45.9665C19.8533 46.1842 19.731 46.4794 19.731 46.7873V50.2692H11.6065V44.466H15.0884C15.3963 44.466 15.6915 44.3437 15.9091 44.126C16.1268 43.9083 16.2491 43.6131 16.2491 43.3053V15.4497C16.2491 15.1419 16.1268 14.8467 15.9091 14.629C15.6915 14.4113 15.3963 14.2891 15.0884 14.2891H1.16065C0.852826 14.2891 0.55761 14.4113 0.339946 14.629C0.122282 14.8467 0 15.1419 0 15.4497V43.3053C0 43.6131 0.122282 43.9083 0.339946 44.126C0.55761 44.3437 0.852826 44.466 1.16065 44.466H4.6426V50.2692H1.16065C0.852826 50.2692 0.55761 50.3915 0.339946 50.6091C0.122282 50.8268 0 51.122 0 51.4299V58.3937C0 58.7016 0.122282 58.9968 0.339946 59.2145C0.55761 59.4321 0.852826 59.5544 1.16065 59.5544V68.8396C1.16065 69.1474 1.28293 69.4426 1.5006 69.6603C1.71826 69.878 2.01348 70.0002 2.3213 70.0002H67.3177C67.6255 70.0002 67.9207 69.878 68.1384 69.6603C68.356 69.4426 68.4783 69.1474 68.4783 68.8396V59.5544C68.7862 59.5544 69.0814 59.4321 69.299 59.2145C69.5167 58.9968 69.639 58.7016 69.639 58.3937V51.4299C69.639 51.122 69.5167 50.8268 69.299 50.6091C69.0814 50.3915 68.7862 50.2692 68.4783 50.2692H64.9964V44.466H68.4783C68.7862 44.466 69.0814 44.3437 69.299 44.126C69.5167 43.9083 69.639 43.6131 69.639 43.3053V15.4497C69.639 15.1419 69.5167 14.8467 69.299 14.629C69.0814 14.4113 68.7862 14.2891 68.4783 14.2891ZM38.3014 43.3053H42.944V45.6266H38.3014V43.3053ZM26.6949 43.3053H31.3375V45.6266H26.6949V43.3053ZM22.0523 47.9479H47.5866V50.2692H22.0523V47.9479ZM2.3213 16.6104H13.9278V42.1447H2.3213V16.6104ZM6.9639 44.466H9.2852V50.2692H6.9639V44.466ZM66.157 67.6789H3.48195V59.5544H66.157V67.6789ZM67.3177 57.2331H2.3213V52.5905H67.3177V57.2331ZM62.6751 50.2692H60.3538V44.466H62.6751V50.2692ZM67.3177 42.1447H55.7112V16.6104H67.3177V42.1447Z" fill="white"/>
<path d="M61.5152 38.4229C62.2038 38.4229 62.877 38.2187 63.4496 37.8361C64.0222 37.4535 64.4685 36.9097 64.7321 36.2734C64.9956 35.6372 65.0645 34.9371 64.9302 34.2616C64.7958 33.5862 64.4642 32.9658 63.9773 32.4788C63.4903 31.9919 62.8699 31.6602 62.1944 31.5259C61.519 31.3915 60.8189 31.4605 60.1827 31.724C59.5464 31.9876 59.0026 32.4339 58.62 33.0065C58.2374 33.5791 58.0332 34.2523 58.0332 34.9409C58.0332 35.8644 58.4001 36.7501 59.053 37.403C59.706 38.056 60.5917 38.4229 61.5152 38.4229ZM61.5152 33.7803C61.7447 33.7803 61.9691 33.8484 62.16 33.9759C62.3508 34.1034 62.4996 34.2847 62.5875 34.4968C62.6753 34.7089 62.6983 34.9422 62.6535 35.1674C62.6087 35.3925 62.4982 35.5993 62.3359 35.7616C62.1735 35.924 61.9667 36.0345 61.7416 36.0793C61.5164 36.1241 61.2831 36.1011 61.071 36.0132C60.8589 35.9254 60.6776 35.7766 60.5501 35.5858C60.4226 35.3949 60.3545 35.1705 60.3545 34.9409C60.3545 34.6331 60.4768 34.3379 60.6944 34.1202C60.9121 33.9026 61.2073 33.7803 61.5152 33.7803Z" fill="white"/>
<path d="M19.5316 2.88222C18.7931 2.17972 17.8486 1.73289 16.8371 1.60752C15.8256 1.48215 14.8006 1.68487 13.9129 2.18583L12.4273 0.700195L10.7861 2.34251L12.2625 3.81886C11.7328 4.70039 11.5144 5.73417 11.6421 6.75461C11.7699 7.77504 12.2364 8.72308 12.967 9.44685L15.4287 11.9086C15.6464 12.1262 15.9415 12.2484 16.2493 12.2484C16.5571 12.2484 16.8522 12.1262 17.0699 11.9086L21.9945 6.98511C22.2121 6.76746 22.3343 6.4723 22.3343 6.16453C22.3343 5.85677 22.2121 5.56161 21.9945 5.34395L19.5316 2.88222ZM16.2493 9.44685L14.6082 7.80569C14.3864 7.59156 14.2096 7.33542 14.0879 7.05221C13.9663 6.769 13.9023 6.4644 13.8996 6.15618C13.8969 5.84796 13.9556 5.54229 14.0723 5.25701C14.1891 4.97173 14.3614 4.71256 14.5794 4.4946C14.7973 4.27665 15.0565 4.10429 15.3418 3.98757C15.6271 3.87085 15.9327 3.81212 16.241 3.8148C16.5492 3.81748 16.8538 3.88151 17.137 4.00317C17.4202 4.12483 17.6763 4.30167 17.8905 4.52337L19.5316 6.16453L16.2493 9.44685Z" fill="white"/>
<path d="M55.1727 0.701172L53.6859 2.1868C52.7982 1.68585 51.7732 1.48313 50.7617 1.6085C49.7502 1.73386 48.8057 2.18069 48.0672 2.88319L45.6054 5.34377C45.3879 5.56142 45.2656 5.85659 45.2656 6.16435C45.2656 6.47211 45.3879 6.76727 45.6054 6.98493L50.5301 11.9084C50.7477 12.126 51.0429 12.2482 51.3507 12.2482C51.6584 12.2482 51.9536 12.126 52.1712 11.9084L54.633 9.44667C55.3636 8.72289 55.8301 7.77486 55.9578 6.75442C56.0856 5.73399 55.8671 4.7002 55.3375 3.81868L56.8138 2.34233L55.1727 0.701172ZM52.9918 7.80551L51.3507 9.44667L48.0672 6.16435L49.7083 4.52319C50.1506 4.10083 50.7386 3.86515 51.3501 3.86515C51.9616 3.86515 52.5496 4.10083 52.9918 4.52319C53.427 4.9585 53.6715 5.54882 53.6715 6.16435C53.6715 6.77987 53.427 7.3702 52.9918 7.80551Z" fill="white"/>
<path d="M24.9379 7.47132L23.8105 9.50049L34.2567 15.304L35.3841 13.2748L24.9379 7.47132Z" fill="white"/>
<path d="M44.6201 7.52007L37.6562 12.1626L38.9439 14.094L45.9077 9.45151L44.6201 7.52007Z" fill="white"/>
<path d="M49.2035 13.9997L43.4004 20.9634L45.1837 22.4495L50.9868 15.4858L49.2035 13.9997Z" fill="white"/>
<path d="M18.8153 12.5998L16.7998 13.7515L21.4423 21.8757L23.4577 20.7241L18.8153 12.5998Z" fill="white"/>
</g>
<defs>
<clipPath id="clip0_233_398">
<rect width="70" height="70" fill="white"/>
</clipPath>
</defs>
</svg>
